<mxfile host="app.diagrams.net" agent="Mozilla/5.0 (Macintosh; Intel Mac OS X 10_15_7) AppleWebKit/605.1.15 (KHTML, like Gecko) Version/18.1 Safari/605.1.15" version="25.0.3">
  <diagram name="Page-1" id="iyEF6w-apEn2G2JaHF0v">
    <mxGraphModel dx="1449" dy="534" grid="1" gridSize="10" guides="1" tooltips="1" connect="1" arrows="1" fold="1" page="1" pageScale="1" pageWidth="827" pageHeight="1169" math="0" shadow="0">
      <root>
        <mxCell id="0" />
        <mxCell id="1" parent="0" />
        <mxCell id="oiVrRURtHwTcUtBkJ1Dq-1" value="" style="edgeStyle=orthogonalEdgeStyle;rounded=0;orthogonalLoop=1;jettySize=auto;html=1;" edge="1" parent="1" source="oiVrRURtHwTcUtBkJ1Dq-2" target="oiVrRURtHwTcUtBkJ1Dq-4">
          <mxGeometry relative="1" as="geometry" />
        </mxCell>
        <mxCell id="oiVrRURtHwTcUtBkJ1Dq-2" value="Start" style="ellipse;whiteSpace=wrap;html=1;" vertex="1" parent="1">
          <mxGeometry x="-360" y="780" width="120" height="80" as="geometry" />
        </mxCell>
        <mxCell id="oiVrRURtHwTcUtBkJ1Dq-3" value="" style="edgeStyle=orthogonalEdgeStyle;rounded=0;orthogonalLoop=1;jettySize=auto;html=1;" edge="1" parent="1" source="oiVrRURtHwTcUtBkJ1Dq-4" target="oiVrRURtHwTcUtBkJ1Dq-6">
          <mxGeometry relative="1" as="geometry" />
        </mxCell>
        <mxCell id="oiVrRURtHwTcUtBkJ1Dq-4" value="Input which file to import data" style="shape=parallelogram;perimeter=parallelogramPerimeter;whiteSpace=wrap;html=1;fixedSize=1;" vertex="1" parent="1">
          <mxGeometry x="-365" y="900" width="130" height="70" as="geometry" />
        </mxCell>
        <mxCell id="oiVrRURtHwTcUtBkJ1Dq-5" value="" style="edgeStyle=orthogonalEdgeStyle;rounded=0;orthogonalLoop=1;jettySize=auto;html=1;" edge="1" parent="1" source="oiVrRURtHwTcUtBkJ1Dq-6" target="oiVrRURtHwTcUtBkJ1Dq-9">
          <mxGeometry relative="1" as="geometry" />
        </mxCell>
        <mxCell id="oiVrRURtHwTcUtBkJ1Dq-6" value="Is option valid?" style="rhombus;whiteSpace=wrap;html=1;" vertex="1" parent="1">
          <mxGeometry x="-350" y="1010" width="100" height="90" as="geometry" />
        </mxCell>
        <mxCell id="oiVrRURtHwTcUtBkJ1Dq-7" value="" style="endArrow=classic;html=1;rounded=0;exitX=1;exitY=0.5;exitDx=0;exitDy=0;entryX=0.938;entryY=0.6;entryDx=0;entryDy=0;entryPerimeter=0;edgeStyle=orthogonalEdgeStyle;" edge="1" parent="1" source="oiVrRURtHwTcUtBkJ1Dq-6" target="oiVrRURtHwTcUtBkJ1Dq-4">
          <mxGeometry width="50" height="50" relative="1" as="geometry">
            <mxPoint x="-30" y="1160" as="sourcePoint" />
            <mxPoint x="20" y="1110" as="targetPoint" />
            <Array as="points">
              <mxPoint x="-210" y="1055" />
              <mxPoint x="-210" y="942" />
            </Array>
          </mxGeometry>
        </mxCell>
        <mxCell id="oiVrRURtHwTcUtBkJ1Dq-8" value="" style="edgeStyle=orthogonalEdgeStyle;rounded=0;orthogonalLoop=1;jettySize=auto;html=1;" edge="1" parent="1" source="oiVrRURtHwTcUtBkJ1Dq-9" target="oiVrRURtHwTcUtBkJ1Dq-11">
          <mxGeometry relative="1" as="geometry">
            <mxPoint x="-300" y="1240" as="targetPoint" />
          </mxGeometry>
        </mxCell>
        <mxCell id="oiVrRURtHwTcUtBkJ1Dq-9" value="Read book data from excel into ADT variable" style="rounded=0;whiteSpace=wrap;html=1;" vertex="1" parent="1">
          <mxGeometry x="-360" y="1140" width="120" height="60" as="geometry" />
        </mxCell>
        <mxCell id="oiVrRURtHwTcUtBkJ1Dq-10" value="" style="edgeStyle=orthogonalEdgeStyle;rounded=0;orthogonalLoop=1;jettySize=auto;html=1;entryX=0.5;entryY=0;entryDx=0;entryDy=0;" edge="1" parent="1" source="oiVrRURtHwTcUtBkJ1Dq-11" target="oiVrRURtHwTcUtBkJ1Dq-16">
          <mxGeometry relative="1" as="geometry">
            <mxPoint x="-300" y="1450" as="targetPoint" />
          </mxGeometry>
        </mxCell>
        <mxCell id="oiVrRURtHwTcUtBkJ1Dq-11" value="Initialize variable to count compare &amp;amp; move/swap operation" style="rounded=0;whiteSpace=wrap;html=1;" vertex="1" parent="1">
          <mxGeometry x="-359.5" y="1270" width="120" height="60" as="geometry" />
        </mxCell>
        <mxCell id="oiVrRURtHwTcUtBkJ1Dq-15" value="" style="edgeStyle=orthogonalEdgeStyle;rounded=0;orthogonalLoop=1;jettySize=auto;html=1;" edge="1" parent="1" source="oiVrRURtHwTcUtBkJ1Dq-16" target="oiVrRURtHwTcUtBkJ1Dq-18">
          <mxGeometry relative="1" as="geometry" />
        </mxCell>
        <mxCell id="oiVrRURtHwTcUtBkJ1Dq-16" value="Start radix sort process" style="rounded=0;whiteSpace=wrap;html=1;" vertex="1" parent="1">
          <mxGeometry x="-360" y="1390" width="120" height="60" as="geometry" />
        </mxCell>
        <mxCell id="oiVrRURtHwTcUtBkJ1Dq-17" value="" style="edgeStyle=orthogonalEdgeStyle;rounded=0;orthogonalLoop=1;jettySize=auto;html=1;" edge="1" parent="1" source="oiVrRURtHwTcUtBkJ1Dq-18" target="oiVrRURtHwTcUtBkJ1Dq-20">
          <mxGeometry relative="1" as="geometry" />
        </mxCell>
        <mxCell id="oiVrRURtHwTcUtBkJ1Dq-18" value="Find Max ISBN Length" style="rounded=0;whiteSpace=wrap;html=1;" vertex="1" parent="1">
          <mxGeometry x="-359.5" y="1480" width="120" height="60" as="geometry" />
        </mxCell>
        <mxCell id="oiVrRURtHwTcUtBkJ1Dq-19" value="" style="edgeStyle=orthogonalEdgeStyle;rounded=0;orthogonalLoop=1;jettySize=auto;html=1;" edge="1" parent="1" source="oiVrRURtHwTcUtBkJ1Dq-20" target="oiVrRURtHwTcUtBkJ1Dq-22">
          <mxGeometry relative="1" as="geometry" />
        </mxCell>
        <mxCell id="oiVrRURtHwTcUtBkJ1Dq-20" value="Iterative Over Each Digit Position" style="rounded=0;whiteSpace=wrap;html=1;" vertex="1" parent="1">
          <mxGeometry x="-363" y="1570" width="120" height="60" as="geometry" />
        </mxCell>
        <mxCell id="oiVrRURtHwTcUtBkJ1Dq-21" value="" style="edgeStyle=orthogonalEdgeStyle;rounded=0;orthogonalLoop=1;jettySize=auto;html=1;" edge="1" parent="1" source="oiVrRURtHwTcUtBkJ1Dq-22" target="oiVrRURtHwTcUtBkJ1Dq-24">
          <mxGeometry relative="1" as="geometry" />
        </mxCell>
        <mxCell id="oiVrRURtHwTcUtBkJ1Dq-22" value="Stable Counting Sort for Current Digit" style="rounded=0;whiteSpace=wrap;html=1;" vertex="1" parent="1">
          <mxGeometry x="-363" y="1660" width="120" height="60" as="geometry" />
        </mxCell>
        <mxCell id="oiVrRURtHwTcUtBkJ1Dq-23" value="" style="edgeStyle=orthogonalEdgeStyle;rounded=0;orthogonalLoop=1;jettySize=auto;html=1;" edge="1" parent="1" source="oiVrRURtHwTcUtBkJ1Dq-24" target="oiVrRURtHwTcUtBkJ1Dq-27">
          <mxGeometry relative="1" as="geometry" />
        </mxCell>
        <mxCell id="oiVrRURtHwTcUtBkJ1Dq-24" value="Rebuild Array from Buckets" style="rounded=0;whiteSpace=wrap;html=1;" vertex="1" parent="1">
          <mxGeometry x="-363" y="1750" width="120" height="60" as="geometry" />
        </mxCell>
        <mxCell id="oiVrRURtHwTcUtBkJ1Dq-25" value="" style="edgeStyle=orthogonalEdgeStyle;rounded=0;orthogonalLoop=1;jettySize=auto;html=1;" edge="1" parent="1" source="oiVrRURtHwTcUtBkJ1Dq-27">
          <mxGeometry relative="1" as="geometry">
            <mxPoint x="-303" y="2020" as="targetPoint" />
          </mxGeometry>
        </mxCell>
        <mxCell id="oiVrRURtHwTcUtBkJ1Dq-26" style="edgeStyle=orthogonalEdgeStyle;rounded=0;orthogonalLoop=1;jettySize=auto;html=1;exitX=1;exitY=0.5;exitDx=0;exitDy=0;entryX=1;entryY=0.5;entryDx=0;entryDy=0;" edge="1" parent="1" source="oiVrRURtHwTcUtBkJ1Dq-27" target="oiVrRURtHwTcUtBkJ1Dq-20">
          <mxGeometry relative="1" as="geometry">
            <mxPoint x="-180" y="1590" as="targetPoint" />
          </mxGeometry>
        </mxCell>
        <mxCell id="oiVrRURtHwTcUtBkJ1Dq-27" value="Current compare/move operation is&amp;nbsp;&lt;div&gt;100,500,1000?&lt;/div&gt;" style="rhombus;whiteSpace=wrap;html=1;" vertex="1" parent="1">
          <mxGeometry x="-390" y="1840" width="175" height="150" as="geometry" />
        </mxCell>
        <mxCell id="oiVrRURtHwTcUtBkJ1Dq-32" value="" style="edgeStyle=orthogonalEdgeStyle;rounded=0;orthogonalLoop=1;jettySize=auto;html=1;" edge="1" parent="1" source="oiVrRURtHwTcUtBkJ1Dq-33" target="oiVrRURtHwTcUtBkJ1Dq-35">
          <mxGeometry relative="1" as="geometry" />
        </mxCell>
        <mxCell id="oiVrRURtHwTcUtBkJ1Dq-33" value="Record total comparison count, move count and sort time taken for entire sort process" style="rounded=0;whiteSpace=wrap;html=1;" vertex="1" parent="1">
          <mxGeometry x="-385" y="2019" width="150" height="80" as="geometry" />
        </mxCell>
        <mxCell id="oiVrRURtHwTcUtBkJ1Dq-34" value="" style="edgeStyle=orthogonalEdgeStyle;rounded=0;orthogonalLoop=1;jettySize=auto;html=1;" edge="1" parent="1" source="oiVrRURtHwTcUtBkJ1Dq-35" target="oiVrRURtHwTcUtBkJ1Dq-37">
          <mxGeometry relative="1" as="geometry" />
        </mxCell>
        <mxCell id="oiVrRURtHwTcUtBkJ1Dq-35" value="Display and write total time taken and operation count for compare, move and sort operation to txt log file" style="rounded=0;whiteSpace=wrap;html=1;" vertex="1" parent="1">
          <mxGeometry x="-385" y="2138" width="150" height="80" as="geometry" />
        </mxCell>
        <mxCell id="oiVrRURtHwTcUtBkJ1Dq-36" value="" style="edgeStyle=orthogonalEdgeStyle;rounded=0;orthogonalLoop=1;jettySize=auto;html=1;" edge="1" parent="1" source="oiVrRURtHwTcUtBkJ1Dq-37" target="oiVrRURtHwTcUtBkJ1Dq-39">
          <mxGeometry relative="1" as="geometry" />
        </mxCell>
        <mxCell id="oiVrRURtHwTcUtBkJ1Dq-37" value="Display and write total time taken for the 100,500,1000th compare and move operation to txt log file" style="rounded=0;whiteSpace=wrap;html=1;" vertex="1" parent="1">
          <mxGeometry x="-385" y="2278" width="150" height="80" as="geometry" />
        </mxCell>
        <mxCell id="oiVrRURtHwTcUtBkJ1Dq-38" value="" style="edgeStyle=orthogonalEdgeStyle;rounded=0;orthogonalLoop=1;jettySize=auto;html=1;" edge="1" parent="1" source="oiVrRURtHwTcUtBkJ1Dq-39" target="oiVrRURtHwTcUtBkJ1Dq-40">
          <mxGeometry relative="1" as="geometry" />
        </mxCell>
        <mxCell id="oiVrRURtHwTcUtBkJ1Dq-39" value="Write the sorted book data to text file" style="rounded=0;whiteSpace=wrap;html=1;" vertex="1" parent="1">
          <mxGeometry x="-385" y="2418" width="150" height="80" as="geometry" />
        </mxCell>
        <mxCell id="oiVrRURtHwTcUtBkJ1Dq-40" value="End" style="ellipse;whiteSpace=wrap;html=1;" vertex="1" parent="1">
          <mxGeometry x="-370" y="2538" width="120" height="80" as="geometry" />
        </mxCell>
        <mxCell id="oiVrRURtHwTcUtBkJ1Dq-43" value="True" style="text;html=1;align=center;verticalAlign=middle;resizable=0;points=[];autosize=1;strokeColor=none;fillColor=none;" vertex="1" parent="1">
          <mxGeometry x="-306" y="1989" width="50" height="30" as="geometry" />
        </mxCell>
        <mxCell id="oiVrRURtHwTcUtBkJ1Dq-44" value="False" style="text;html=1;align=center;verticalAlign=middle;resizable=0;points=[];autosize=1;strokeColor=none;fillColor=none;" vertex="1" parent="1">
          <mxGeometry x="-223" y="1880" width="50" height="30" as="geometry" />
        </mxCell>
        <mxCell id="oiVrRURtHwTcUtBkJ1Dq-45" value="False" style="text;html=1;align=center;verticalAlign=middle;resizable=0;points=[];autosize=1;strokeColor=none;fillColor=none;" vertex="1" parent="1">
          <mxGeometry x="-262" y="1020" width="50" height="30" as="geometry" />
        </mxCell>
        <mxCell id="oiVrRURtHwTcUtBkJ1Dq-46" value="True" style="text;html=1;align=center;verticalAlign=middle;resizable=0;points=[];autosize=1;strokeColor=none;fillColor=none;" vertex="1" parent="1">
          <mxGeometry x="-300" y="1100" width="50" height="30" as="geometry" />
        </mxCell>
      </root>
    </mxGraphModel>
  </diagram>
</mxfile>
